<svg width="40" height="40" viewBox="0 0 9 9" fill="none" xmlns="http://www.w3.org/2000/svg">
<path d="M4.22088 0.91722C4.28252 0.727495 4.55093 0.727495 4.61258 0.91722L5.48011 3.58722C5.50768 3.67206 5.58675 3.72951 5.67596 3.72951H8.48336C8.68285 3.72951 8.76579 3.98478 8.6044 4.10204L6.33317 5.75219C6.261 5.80463 6.23079 5.89758 6.25836 5.98242L7.1259 8.65242C7.18754 8.84215 6.97039 8.99991 6.809 8.88266L4.53777 7.23251C4.46559 7.18007 4.36786 7.18007 4.29568 7.23251L2.02445 8.88266C1.86306 8.99991 1.64591 8.84214 1.70756 8.65242L2.57509 5.98242C2.60266 5.89758 2.57246 5.80463 2.50028 5.75219L0.229049 4.10204C0.0676593 3.98478 0.150603 3.72951 0.350092 3.72951H3.15749C3.24671 3.72951 3.32577 3.67206 3.35334 3.58722L4.22088 0.91722Z" fill="#F1CC4A"/>
</svg>
